<svg width="95" height="24" viewBox="0 0 95 24" fill="none" xmlns="http://www.w3.org/2000/svg">
<g clip-path="url(#clip0_37_248)">
<path d="M16.3342 24C21.9735 24 26.545 19.4078 26.545 13.7431C26.545 8.07831 21.9735 3.48612 16.3342 3.48612C10.6949 3.48612 6.12341 8.07831 6.12341 13.7431C6.12341 19.4078 10.6949 24 16.3342 24Z" fill="#DBECF9"/>
<path d="M26.4897 3.86572C26.9409 4.09942 25.8149 7.27437 24.9769 9.26017C24.4936 10.4028 24.036 11.3209 23.7134 11.9367C23.1941 10.5655 22.6722 9.19174 22.153 7.82053C22.5231 7.53131 23.0527 7.10006 23.6632 6.54616C25.6208 4.77469 26.2198 3.72757 26.4897 3.86572Z" fill="#8295A6"/>
<path d="M21.563 8.06456C22.018 9.65397 22.473 11.2421 22.928 12.8328C22.6774 13.3531 22.3291 13.9703 21.8483 14.6185C21.3586 15.277 20.8586 15.796 20.4268 16.1898L18.7764 9.30665C19.2905 9.18012 19.8715 8.98644 20.4923 8.68173C20.8882 8.48935 21.2455 8.2776 21.5643 8.06456H21.563Z" fill="#9DACB7"/>
<path d="M18.0977 9.51582C18.4293 12.1123 18.7597 14.7101 19.0913 17.3054C18.6003 17.7456 17.955 18.2337 17.1607 18.6378C16.527 18.9593 15.9396 19.153 15.4409 19.2731L15.0707 19.2937C14.3869 16.2272 13.7018 13.1595 13.0167 10.0917C13.7044 10.0762 14.428 10.0349 15.1825 9.95997C16.225 9.85539 17.1967 9.70174 18.0964 9.51453L18.0977 9.51582Z" fill="#AAB5BD"/>
<path d="M12.2262 10.1149C12.644 13.0407 13.0604 15.9677 13.4782 18.8935C13.3214 19.1453 13.063 19.4719 12.644 19.6953C11.3882 20.3615 9.79308 19.2847 7.16326 18.2518C5.16841 17.4655 -0.394576 14.8096 0.0771463 12.8108C0.491028 11.0575 5.38434 10.4881 7.57458 10.2324C9.42933 10.0168 11.0257 10.0374 12.225 10.1149H12.2262Z" fill="#92A8BA"/>
<path d="M17.3522 19.9948C17.8278 20.0594 18.8882 20.213 19.9872 20.8625C20.4473 21.1336 20.5514 21.2782 21.3573 21.7689C22.455 22.4364 22.7648 22.4751 22.7545 22.6249C22.7224 23.073 19.8046 23.7702 17.0977 22.7334C15.626 22.1691 14.0514 20.9813 14.2429 20.3796C14.4409 19.756 16.4974 19.8786 17.3522 19.9948Z" fill="#A0B0C0"/>
<path d="M28.5398 3.51065C28.8149 3.46288 29.4306 3.36088 30.1542 3.52744C30.4563 3.59716 30.5398 3.65913 31.0732 3.78954C31.7995 3.96643 31.9781 3.93415 31.9987 4.01808C32.0591 4.27243 30.5617 5.17366 28.8779 5.07553C27.9627 5.02259 26.8804 4.64041 26.8817 4.27243C26.883 3.89154 28.0462 3.59716 28.5398 3.51065Z" fill="#A0B0C0"/>
<path d="M26.0334 2.33699C25.964 2.1175 25.8059 1.62944 25.4126 1.16462C25.248 0.969658 25.1722 0.932214 24.8766 0.591349C24.4743 0.127824 24.4319 -0.0154941 24.3624 0.00129092C24.1555 0.0529371 24.0668 1.48741 24.7725 2.67915C25.1568 3.32731 25.8406 3.97418 26.1067 3.83473C26.3817 3.69012 26.1568 2.7295 26.0334 2.3357V2.33699Z" fill="#A0B0C0"/>
</g>
<path d="M40.62 11.8C40.62 10.9333 40.7733 10.0867 41.08 9.26C41.4 8.42 41.86 7.66 42.46 6.98C43.06 6.28667 43.7933 5.74 44.66 5.34C45.5267 4.92667 46.5133 4.72 47.62 4.72C48.9267 4.72 50.0533 5.00667 51 5.58C51.96 6.15333 52.6733 6.9 53.14 7.82L51.02 9.28C50.78 8.74667 50.4667 8.32667 50.08 8.02C49.6933 7.7 49.28 7.48 48.84 7.36C48.4 7.22667 47.9667 7.16 47.54 7.16C46.8467 7.16 46.24 7.3 45.72 7.58C45.2133 7.86 44.7867 8.22667 44.44 8.68C44.0933 9.13333 43.8333 9.64 43.66 10.2C43.5 10.76 43.42 11.32 43.42 11.88C43.42 12.5067 43.52 13.1133 43.72 13.7C43.92 14.2733 44.2 14.7867 44.56 15.24C44.9333 15.68 45.3733 16.0333 45.88 16.3C46.4 16.5533 46.9667 16.68 47.58 16.68C48.02 16.68 48.4667 16.6067 48.92 16.46C49.3733 16.3133 49.7933 16.08 50.18 15.76C50.5667 15.44 50.8667 15.0267 51.08 14.52L53.34 15.82C53.06 16.5267 52.6 17.1267 51.96 17.62C51.3333 18.1133 50.6267 18.4867 49.84 18.74C49.0533 18.9933 48.2733 19.12 47.5 19.12C46.4867 19.12 45.56 18.9133 44.72 18.5C43.88 18.0733 43.1533 17.5133 42.54 16.82C41.94 16.1133 41.4667 15.3267 41.12 14.46C40.7867 13.58 40.62 12.6933 40.62 11.8ZM54.9109 4.4H57.5909V15.64C57.5909 16.12 57.6709 16.4467 57.8309 16.62C57.9909 16.78 58.2109 16.86 58.4909 16.86C58.7043 16.86 58.9243 16.8333 59.1509 16.78C59.3776 16.7267 59.5776 16.66 59.7509 16.58L60.1109 18.62C59.7509 18.7933 59.3309 18.9267 58.8509 19.02C58.3709 19.1133 57.9376 19.16 57.5509 19.16C56.7109 19.16 56.0576 18.94 55.5909 18.5C55.1376 18.0467 54.9109 17.4067 54.9109 16.58V4.4ZM61.1786 15.08V8.52H63.8586V14.5C63.8586 15.3 64.0053 15.9067 64.2986 16.32C64.5919 16.72 65.0253 16.92 65.5986 16.92C65.9453 16.92 66.2853 16.8533 66.6186 16.72C66.9653 16.5733 67.2786 16.36 67.5586 16.08C67.8519 15.8 68.0986 15.4467 68.2986 15.02V8.52H70.9786V16C70.9786 16.28 71.0253 16.48 71.1186 16.6C71.2253 16.72 71.3919 16.7933 71.6186 16.82V19C71.3519 19.04 71.1253 19.0667 70.9386 19.08C70.7653 19.1067 70.6053 19.12 70.4586 19.12C69.9786 19.12 69.5853 19.0133 69.2786 18.8C68.9853 18.5733 68.8119 18.2667 68.7586 17.88L68.6986 17.04C68.2319 17.7467 67.6319 18.2867 66.8986 18.66C66.1653 19.02 65.3586 19.2 64.4786 19.2C63.3986 19.2 62.5786 18.8533 62.0186 18.16C61.4586 17.4533 61.1786 16.4267 61.1786 15.08ZM79.6019 19.2C78.8019 19.2 78.0885 19.02 77.4619 18.66C76.8352 18.3 76.3419 17.8067 75.9819 17.18V19H73.6419V4.4H76.3219V10.36C76.6952 9.73333 77.1819 9.24 77.7819 8.88C78.3952 8.52 79.1085 8.34 79.9219 8.34C80.6019 8.34 81.2219 8.48667 81.7819 8.78C82.3419 9.06 82.8219 9.45333 83.2219 9.96C83.6352 10.4667 83.9485 11.0467 84.1619 11.7C84.3885 12.3533 84.5019 13.0533 84.5019 13.8C84.5019 14.5467 84.3752 15.2467 84.1219 15.9C83.8819 16.5533 83.5419 17.1333 83.1019 17.64C82.6619 18.1333 82.1419 18.52 81.5419 18.8C80.9552 19.0667 80.3085 19.2 79.6019 19.2ZM78.8619 16.92C79.2885 16.92 79.6752 16.84 80.0219 16.68C80.3819 16.5067 80.6885 16.28 80.9419 16C81.2085 15.72 81.4085 15.3933 81.5419 15.02C81.6885 14.6333 81.7619 14.2333 81.7619 13.82C81.7619 13.2467 81.6419 12.72 81.4019 12.24C81.1752 11.7467 80.8552 11.3533 80.4419 11.06C80.0419 10.7667 79.5685 10.62 79.0219 10.62C78.6352 10.62 78.2619 10.7133 77.9019 10.9C77.5552 11.0733 77.2419 11.3133 76.9619 11.62C76.6952 11.9267 76.4819 12.2733 76.3219 12.66V15.16C76.4019 15.4267 76.5285 15.6667 76.7019 15.88C76.8885 16.0933 77.1019 16.28 77.3419 16.44C77.5819 16.5867 77.8285 16.7067 78.0819 16.8C78.3485 16.88 78.6085 16.92 78.8619 16.92ZM90.1777 19.2C89.2843 19.2 88.431 19.0533 87.6177 18.76C86.8043 18.4667 86.1043 18.0333 85.5177 17.46L86.4777 15.72C87.1043 16.2267 87.7177 16.6 88.3177 16.84C88.931 17.08 89.5177 17.2 90.0777 17.2C90.5977 17.2 91.011 17.1067 91.3177 16.92C91.6377 16.7333 91.7977 16.4533 91.7977 16.08C91.7977 15.8267 91.711 15.6333 91.5377 15.5C91.3643 15.3533 91.111 15.2267 90.7777 15.12C90.4577 15.0133 90.0643 14.8933 89.5977 14.76C88.8243 14.5067 88.1777 14.26 87.6577 14.02C87.1377 13.78 86.7443 13.48 86.4777 13.12C86.2243 12.7467 86.0977 12.2733 86.0977 11.7C86.0977 11.0067 86.271 10.4133 86.6177 9.92C86.9777 9.41333 87.471 9.02 88.0977 8.74C88.7377 8.46 89.4843 8.32 90.3377 8.32C91.0843 8.32 91.791 8.44 92.4577 8.68C93.1243 8.90667 93.731 9.28 94.2777 9.8L93.1977 11.5C92.6643 11.0867 92.1577 10.7867 91.6777 10.6C91.1977 10.4 90.711 10.3 90.2177 10.3C89.9377 10.3 89.671 10.3333 89.4177 10.4C89.1777 10.4667 88.9777 10.58 88.8177 10.74C88.671 10.8867 88.5977 11.1 88.5977 11.38C88.5977 11.6333 88.6643 11.8333 88.7977 11.98C88.9443 12.1133 89.1577 12.2333 89.4377 12.34C89.731 12.4467 90.0843 12.5667 90.4977 12.7C91.3377 12.94 92.0443 13.1867 92.6177 13.44C93.2043 13.6933 93.6443 14.0067 93.9377 14.38C94.231 14.74 94.3777 15.24 94.3777 15.88C94.3777 16.92 93.9977 17.7333 93.2377 18.32C92.4777 18.9067 91.4577 19.2 90.1777 19.2Z" fill="#0099AD"/>
<defs>
<clipPath id="clip0_37_248">
<rect width="32" height="24" fill="white"/>
</clipPath>
</defs>
</svg>
