<svg width="32" height="24" viewBox="0 0 32 24" fill="none" xmlns="http://www.w3.org/2000/svg">
<g clip-path="url(#clip0_136_870)">
<path d="M16.3342 24C21.9735 24 26.545 19.4078 26.545 13.7431C26.545 8.07831 21.9735 3.48612 16.3342 3.48612C10.6949 3.48612 6.12341 8.07831 6.12341 13.7431C6.12341 19.4078 10.6949 24 16.3342 24Z" fill="#DBECF9"/>
<path d="M26.4897 3.86572C26.9409 4.09942 25.8149 7.27437 24.9769 9.26017C24.4936 10.4028 24.036 11.3209 23.7134 11.9367C23.1941 10.5655 22.6722 9.19174 22.153 7.82053C22.5231 7.53131 23.0527 7.10006 23.6632 6.54616C25.6208 4.77469 26.2198 3.72757 26.4897 3.86572Z" fill="#8295A6"/>
<path d="M21.563 8.06456C22.018 9.65397 22.473 11.2421 22.928 12.8328C22.6774 13.3531 22.3291 13.9703 21.8483 14.6185C21.3586 15.277 20.8586 15.796 20.4268 16.1898L18.7764 9.30665C19.2905 9.18012 19.8715 8.98644 20.4923 8.68173C20.8882 8.48935 21.2455 8.2776 21.5643 8.06456H21.563Z" fill="#9DACB7"/>
<path d="M18.0977 9.51582C18.4293 12.1123 18.7597 14.7101 19.0913 17.3054C18.6003 17.7456 17.955 18.2337 17.1607 18.6378C16.527 18.9593 15.9396 19.153 15.4409 19.2731L15.0707 19.2937C14.3869 16.2272 13.7018 13.1595 13.0167 10.0917C13.7044 10.0762 14.428 10.0349 15.1825 9.95997C16.225 9.85539 17.1967 9.70174 18.0964 9.51453L18.0977 9.51582Z" fill="#AAB5BD"/>
<path d="M12.2262 10.1149C12.644 13.0407 13.0604 15.9677 13.4782 18.8935C13.3214 19.1453 13.063 19.4719 12.644 19.6953C11.3882 20.3615 9.79308 19.2847 7.16326 18.2518C5.16841 17.4655 -0.394576 14.8096 0.0771463 12.8108C0.491028 11.0575 5.38434 10.4881 7.57458 10.2324C9.42933 10.0168 11.0257 10.0374 12.225 10.1149H12.2262Z" fill="#92A8BA"/>
<path d="M17.3522 19.9948C17.8278 20.0594 18.8882 20.213 19.9872 20.8625C20.4473 21.1336 20.5514 21.2782 21.3573 21.7689C22.455 22.4364 22.7648 22.4751 22.7545 22.6249C22.7224 23.073 19.8046 23.7702 17.0977 22.7334C15.626 22.1691 14.0514 20.9813 14.2429 20.3796C14.4409 19.756 16.4974 19.8786 17.3522 19.9948Z" fill="#A0B0C0"/>
<path d="M28.5398 3.51065C28.8149 3.46288 29.4306 3.36088 30.1542 3.52744C30.4563 3.59716 30.5398 3.65913 31.0732 3.78954C31.7995 3.96643 31.9781 3.93415 31.9987 4.01808C32.0591 4.27243 30.5617 5.17366 28.8779 5.07553C27.9627 5.02259 26.8804 4.64041 26.8817 4.27243C26.883 3.89154 28.0462 3.59716 28.5398 3.51065Z" fill="#A0B0C0"/>
<path d="M26.0334 2.33699C25.964 2.1175 25.8059 1.62944 25.4126 1.16462C25.248 0.969659 25.1722 0.932215 24.8766 0.59135C24.4743 0.127825 24.4319 -0.0154932 24.3624 0.00129187C24.1555 0.0529381 24.0668 1.48741 24.7725 2.67915C25.1568 3.32731 25.8406 3.97418 26.1067 3.83473C26.3817 3.69012 26.1568 2.7295 26.0334 2.3357V2.33699Z" fill="#A0B0C0"/>
</g>
<defs>
<clipPath id="clip0_136_870">
<rect width="32" height="24" fill="white"/>
</clipPath>
</defs>
</svg>
