<svg width="96" height="24" viewBox="0 0 96 24" fill="none" xmlns="http://www.w3.org/2000/svg">
<g clip-path="url(#clip0_37_248)">
<path d="M16.3342 24C21.9735 24 26.545 19.4078 26.545 13.7431C26.545 8.07831 21.9735 3.48612 16.3342 3.48612C10.6949 3.48612 6.12341 8.07831 6.12341 13.7431C6.12341 19.4078 10.6949 24 16.3342 24Z" fill="#DBECF9"/>
<path d="M26.4897 3.86572C26.9409 4.09942 25.8149 7.27437 24.9769 9.26017C24.4936 10.4028 24.036 11.3209 23.7134 11.9367C23.1941 10.5655 22.6722 9.19174 22.153 7.82053C22.5231 7.53131 23.0527 7.10006 23.6632 6.54616C25.6208 4.77469 26.2198 3.72757 26.4897 3.86572Z" fill="#8295A6"/>
<path d="M21.563 8.06456C22.018 9.65397 22.473 11.2421 22.928 12.8328C22.6774 13.3531 22.3291 13.9703 21.8483 14.6185C21.3586 15.277 20.8586 15.796 20.4268 16.1898L18.7764 9.30665C19.2905 9.18012 19.8715 8.98644 20.4923 8.68173C20.8882 8.48935 21.2455 8.2776 21.5643 8.06456H21.563Z" fill="#9DACB7"/>
<path d="M18.0977 9.51582C18.4293 12.1123 18.7597 14.7101 19.0913 17.3054C18.6003 17.7456 17.955 18.2337 17.1607 18.6378C16.527 18.9593 15.9396 19.153 15.4409 19.2731L15.0707 19.2937C14.3869 16.2272 13.7018 13.1595 13.0167 10.0917C13.7044 10.0762 14.428 10.0349 15.1825 9.95997C16.225 9.85539 17.1967 9.70174 18.0964 9.51453L18.0977 9.51582Z" fill="#AAB5BD"/>
<path d="M12.2262 10.1149C12.644 13.0407 13.0604 15.9677 13.4782 18.8935C13.3214 19.1453 13.063 19.4719 12.644 19.6953C11.3882 20.3615 9.79308 19.2847 7.16326 18.2518C5.16841 17.4655 -0.394576 14.8096 0.0771463 12.8108C0.491028 11.0575 5.38434 10.4881 7.57458 10.2324C9.42933 10.0168 11.0257 10.0374 12.225 10.1149H12.2262Z" fill="#92A8BA"/>
<path d="M17.3522 19.9948C17.8278 20.0594 18.8882 20.213 19.9872 20.8625C20.4473 21.1336 20.5514 21.2782 21.3573 21.7689C22.455 22.4364 22.7648 22.4751 22.7545 22.6249C22.7224 23.073 19.8046 23.7702 17.0977 22.7334C15.626 22.1691 14.0514 20.9813 14.2429 20.3796C14.4409 19.756 16.4974 19.8786 17.3522 19.9948Z" fill="#A0B0C0"/>
<path d="M28.5398 3.51065C28.8149 3.46288 29.4306 3.36088 30.1542 3.52744C30.4563 3.59716 30.5398 3.65913 31.0732 3.78954C31.7995 3.96643 31.9781 3.93415 31.9987 4.01808C32.0591 4.27243 30.5617 5.17366 28.8779 5.07553C27.9627 5.0226 26.8804 4.64041 26.8817 4.27243C26.883 3.89154 28.0462 3.59716 28.5398 3.51065Z" fill="#A0B0C0"/>
<path d="M26.0334 2.33699C25.964 2.1175 25.8059 1.62944 25.4126 1.16462C25.248 0.969658 25.1722 0.932214 24.8766 0.591349C24.4743 0.127824 24.4319 -0.0154939 24.3624 0.00129116C24.1555 0.0529374 24.0668 1.48741 24.7725 2.67915C25.1568 3.32731 25.8406 3.97418 26.1067 3.83473C26.3817 3.69012 26.1568 2.7295 26.0334 2.3357V2.33699Z" fill="#A0B0C0"/>
</g>
<path d="M40.54 11.78C40.54 10.9133 40.7 10.0667 41.02 9.24C41.34 8.4 41.8067 7.64 42.42 6.96C43.0333 6.28 43.78 5.74 44.66 5.34C45.54 4.92667 46.54 4.72 47.66 4.72C48.9933 4.72 50.1467 5.00667 51.12 5.58C52.1067 6.15333 52.84 6.9 53.32 7.82L50.8 9.58C50.5867 9.07333 50.3 8.68 49.94 8.4C49.5933 8.12 49.2067 7.92667 48.78 7.82C48.3667 7.7 47.9667 7.64 47.58 7.64C46.9533 7.64 46.4067 7.76667 45.94 8.02C45.4733 8.26 45.0867 8.58667 44.78 9C44.4733 9.41333 44.2467 9.87333 44.1 10.38C43.9533 10.8867 43.88 11.3933 43.88 11.9C43.88 12.46 43.9667 13 44.14 13.52C44.3133 14.04 44.56 14.5 44.88 14.9C45.2133 15.3 45.6133 15.62 46.08 15.86C46.5467 16.0867 47.06 16.2 47.62 16.2C48.02 16.2 48.4267 16.1333 48.84 16C49.2533 15.8667 49.6333 15.66 49.98 15.38C50.34 15.0867 50.6133 14.7067 50.8 14.24L53.48 15.82C53.2 16.5133 52.74 17.1067 52.1 17.6C51.46 18.0933 50.7333 18.4733 49.92 18.74C49.12 18.9933 48.3267 19.12 47.54 19.12C46.5133 19.12 45.5667 18.9133 44.7 18.5C43.8467 18.0733 43.1067 17.5133 42.48 16.82C41.8667 16.1133 41.3867 15.3267 41.04 14.46C40.7067 13.58 40.54 12.6867 40.54 11.78ZM54.8295 4.4H58.0295V15.26C58.0295 15.7 58.1095 16.0133 58.2695 16.2C58.4295 16.3867 58.6562 16.48 58.9495 16.48C59.1495 16.48 59.3495 16.4533 59.5495 16.4C59.7629 16.3333 59.9495 16.26 60.1095 16.18L60.5295 18.58C60.1295 18.7667 59.6695 18.9133 59.1495 19.02C58.6295 19.1267 58.1429 19.18 57.6895 19.18C56.7829 19.18 56.0762 18.94 55.5695 18.46C55.0762 17.9667 54.8295 17.2733 54.8295 16.38V4.4ZM61.4688 15.22V8.5H64.6688V14.52C64.6688 15.16 64.7954 15.6533 65.0488 16C65.3021 16.3333 65.6621 16.5 66.1288 16.5C66.4221 16.5 66.7021 16.4533 66.9688 16.36C67.2354 16.2533 67.4954 16.0867 67.7488 15.86C68.0021 15.6333 68.2288 15.34 68.4288 14.98V8.5H71.6288V15.44C71.6288 15.76 71.6754 15.9867 71.7687 16.12C71.8754 16.24 72.0554 16.3133 72.3088 16.34V19C72.0154 19.0533 71.7554 19.0933 71.5288 19.12C71.3154 19.1467 71.1221 19.16 70.9488 19.16C70.3888 19.16 69.9421 19.0467 69.6088 18.82C69.2754 18.58 69.0688 18.2467 68.9888 17.82L68.9288 17.18C68.4488 17.8733 67.8488 18.3867 67.1288 18.72C66.4221 19.04 65.6288 19.2 64.7488 19.2C63.6821 19.2 62.8688 18.86 62.3088 18.18C61.7488 17.5 61.4688 16.5133 61.4688 15.22ZM80.4078 19.2C79.6078 19.2 78.9078 19.0333 78.3078 18.7C77.7078 18.3533 77.2345 17.8733 76.8878 17.26V19H74.1078V4.4H77.3078V10.22C77.6545 9.60667 78.1145 9.13333 78.6878 8.8C79.2745 8.46667 79.9611 8.3 80.7478 8.3C81.4145 8.3 82.0211 8.44667 82.5678 8.74C83.1278 9.02 83.6078 9.41333 84.0078 9.92C84.4211 10.4133 84.7411 10.9933 84.9678 11.66C85.1945 12.3133 85.3078 13.0267 85.3078 13.8C85.3078 14.56 85.1811 15.2667 84.9278 15.92C84.6878 16.5733 84.3478 17.1467 83.9078 17.64C83.4678 18.1333 82.9478 18.52 82.3478 18.8C81.7611 19.0667 81.1145 19.2 80.4078 19.2ZM79.5078 16.5C79.8678 16.5 80.2011 16.4333 80.5078 16.3C80.8278 16.1533 81.1011 15.96 81.3278 15.72C81.5545 15.48 81.7278 15.2 81.8478 14.88C81.9678 14.5467 82.0278 14.1867 82.0278 13.8C82.0278 13.3067 81.9278 12.8467 81.7278 12.42C81.5278 11.9933 81.2478 11.6533 80.8878 11.4C80.5411 11.1467 80.1345 11.02 79.6678 11.02C79.3345 11.02 79.0145 11.1 78.7078 11.26C78.4011 11.42 78.1278 11.64 77.8878 11.92C77.6478 12.1867 77.4545 12.4933 77.3078 12.84V15.04C77.4145 15.2667 77.5478 15.4733 77.7078 15.66C77.8678 15.8333 78.0411 15.98 78.2278 16.1C78.4278 16.22 78.6345 16.32 78.8478 16.4C79.0745 16.4667 79.2945 16.5 79.5078 16.5ZM90.9208 19.2C90.0274 19.2 89.1541 19.0533 88.3008 18.76C87.4474 18.4667 86.7274 18.0333 86.1408 17.46L87.2408 15.44C87.8808 15.9067 88.5008 16.26 89.1008 16.5C89.7141 16.74 90.2874 16.86 90.8208 16.86C91.2341 16.86 91.5541 16.7933 91.7808 16.66C92.0074 16.5267 92.1208 16.32 92.1208 16.04C92.1208 15.84 92.0541 15.6867 91.9208 15.58C91.7874 15.46 91.5808 15.3533 91.3008 15.26C91.0341 15.1667 90.7008 15.0667 90.3008 14.96C89.5008 14.6933 88.8341 14.4333 88.3008 14.18C87.7674 13.9267 87.3674 13.62 87.1008 13.26C86.8341 12.8867 86.7008 12.4067 86.7008 11.82C86.7008 11.1133 86.8741 10.5 87.2208 9.98C87.5808 9.44667 88.0874 9.03333 88.7408 8.74C89.3941 8.44667 90.1741 8.3 91.0808 8.3C91.8008 8.3 92.5008 8.41333 93.1808 8.64C93.8741 8.86667 94.5208 9.24667 95.1208 9.78L93.8808 11.78C93.2808 11.3667 92.7474 11.0667 92.2808 10.88C91.8141 10.6933 91.3608 10.6 90.9208 10.6C90.6941 10.6 90.4874 10.6267 90.3008 10.68C90.1141 10.7333 89.9608 10.8267 89.8408 10.96C89.7341 11.08 89.6808 11.24 89.6808 11.44C89.6808 11.64 89.7341 11.8 89.8408 11.92C89.9608 12.04 90.1408 12.1467 90.3808 12.24C90.6341 12.32 90.9474 12.42 91.3208 12.54C92.1874 12.7933 92.9074 13.0533 93.4808 13.32C94.0541 13.5733 94.4808 13.8933 94.7608 14.28C95.0541 14.6533 95.2008 15.1533 95.2008 15.78C95.2008 16.8467 94.8141 17.6867 94.0408 18.3C93.2808 18.9 92.2408 19.2 90.9208 19.2Z" fill="#0099AD"/>
<defs>
<clipPath id="clip0_37_248">
<rect width="32" height="24" fill="white"/>
</clipPath>
</defs>
</svg>
