<svg width="32" height="32" viewBox="0 0 32 32" fill="none" xmlns="http://www.w3.org/2000/svg">
<path d="M16.31 28C21.9578 28 26.5363 23.4078 26.5363 17.7431C26.5363 12.0783 21.9578 7.48613 16.31 7.48613C10.6622 7.48613 6.08373 12.0783 6.08373 17.7431C6.08373 23.4078 10.6622 28 16.31 28Z" fill="#DBECF9"/>
<path d="M26.4809 7.86573C26.9328 8.09943 25.8051 11.2744 24.9658 13.2602C24.4818 14.4028 24.0235 15.3209 23.7004 15.9367C23.1803 14.5655 22.6577 13.1917 22.1376 11.8205C22.5083 11.5313 23.0387 11.1001 23.6502 10.5462C25.6107 8.7747 26.2106 7.72757 26.4809 7.86573Z" fill="#8295A6"/>
<path d="M21.5467 12.0646C22.0024 13.654 22.4581 15.2421 22.9138 16.8328C22.6628 17.3531 22.314 17.9703 21.8325 18.6185C21.3421 19.277 20.8413 19.796 20.4088 20.1898L18.7559 13.3067C19.2708 13.1801 19.8527 12.9864 20.4744 12.6817C20.8709 12.4894 21.2288 12.2776 21.548 12.0646H21.5467Z" fill="#9DACB7"/>
<path d="M18.0762 13.5158C18.4083 16.1123 18.7391 18.7101 19.0713 21.3054C18.5795 21.7456 17.9333 22.2337 17.1377 22.6378C16.5031 22.9593 15.9148 23.153 15.4153 23.2731L15.0446 23.2937C14.3598 20.2272 13.6736 17.1595 12.9875 14.0917C13.6762 14.0762 14.401 14.0349 15.1566 13.96C16.2006 13.8554 17.1738 13.7017 18.0749 13.5145L18.0762 13.5158Z" fill="#AAB5BD"/>
<path d="M12.1958 14.1149C12.6142 17.0407 13.0313 19.9677 13.4496 22.8935C13.2926 23.1453 13.0338 23.4719 12.6142 23.6953C11.3565 24.3615 9.75897 23.2847 7.12516 22.2518C5.12728 21.4655 -0.444138 18.8096 0.0283 16.8109C0.442809 15.0575 5.34354 14.4881 7.5371 14.2324C9.39466 14.0168 10.9935 14.0374 12.1945 14.1149H12.1958Z" fill="#92A8BA"/>
<path d="M17.3295 23.9948C17.8058 24.0594 18.8679 24.213 19.9685 24.8625C20.4293 25.1336 20.5336 25.2782 21.3408 25.7689C22.4401 26.4364 22.7503 26.4751 22.74 26.6249C22.7079 27.073 19.7857 27.7702 17.0747 26.7334C15.6007 26.1691 14.0238 24.9813 14.2156 24.3796C14.4138 23.756 16.4735 23.8786 17.3295 23.9948Z" fill="#A0B0C0"/>
<path d="M28.5341 7.51066C28.8096 7.46289 29.4262 7.36089 30.151 7.52744C30.4535 7.59717 30.5371 7.65914 31.0714 7.78955C31.7987 7.96644 31.9776 7.93416 31.9982 8.01808C32.0587 8.27244 30.559 9.17367 28.8727 9.07554C27.9561 9.0226 26.8722 8.64042 26.8735 8.27244C26.8748 7.89155 28.0398 7.59717 28.5341 7.51066Z" fill="#A0B0C0"/>
<path d="M26.0239 6.337C25.9544 6.1175 25.7961 5.62944 25.4021 5.16463C25.2374 4.96966 25.1614 4.93222 24.8653 4.59136C24.4624 4.12783 24.4199 3.98451 24.3504 4.0013C24.1432 4.05294 24.0543 5.48742 24.7611 6.67915C25.146 7.32731 25.8308 7.97418 26.0973 7.83474C26.3728 7.69013 26.1475 6.72951 26.0239 6.33571V6.337Z" fill="#A0B0C0"/>
</svg>
