<svg width="32" height="24" viewBox="0 0 32 24" fill="none" xmlns="http://www.w3.org/2000/svg">
<g clip-path="url(#clip0_136_870)">
<path d="M16.3342 24C21.9735 24 26.545 19.4078 26.545 13.743C26.545 8.07827 21.9735 3.48608 16.3342 3.48608C10.6949 3.48608 6.12341 8.07827 6.12341 13.743C6.12341 19.4078 10.6949 24 16.3342 24Z" fill="#DBECF9"/>
<path d="M26.4897 3.86569C26.9409 4.09938 25.8149 7.27434 24.9769 9.26013C24.4936 10.4028 24.036 11.3208 23.7134 11.9367C23.1941 10.5655 22.6722 9.1917 22.153 7.82049C22.5231 7.53128 23.0527 7.10003 23.6632 6.54612C25.6208 4.77466 26.2198 3.72753 26.4897 3.86569Z" fill="#8295A6"/>
<path d="M21.563 8.06445C22.018 9.65387 22.473 11.242 22.928 12.8327C22.6774 13.353 22.3291 13.9702 21.8483 14.6184C21.3586 15.2768 20.8586 15.7959 20.4268 16.1897L18.7764 9.30655C19.2905 9.18001 19.8715 8.98634 20.4923 8.68163C20.8882 8.48924 21.2455 8.27749 21.5643 8.06445H21.563Z" fill="#9DACB7"/>
<path d="M18.0977 9.51569C18.4293 12.1122 18.7597 14.71 19.0913 17.3052C18.6003 17.7455 17.955 18.2336 17.1607 18.6377C16.527 18.9592 15.9396 19.1529 15.4409 19.273L15.0707 19.2936C14.3869 16.2271 13.7018 13.1593 13.0167 10.0916C13.7044 10.0761 14.428 10.0347 15.1825 9.95985C16.225 9.85527 17.1967 9.70162 18.0964 9.5144L18.0977 9.51569Z" fill="#AAB5BD"/>
<path d="M12.2262 10.1148C12.6439 13.0406 13.0604 15.9676 13.4781 18.8934C13.3213 19.1452 13.0629 19.4718 12.6439 19.6952C11.3881 20.3614 9.79302 19.2846 7.1632 18.2517C5.16834 17.4654 -0.394637 14.8095 0.0770853 12.8108C0.490967 11.0574 5.38428 10.488 7.57451 10.2323C9.42927 10.0167 11.0257 10.0373 12.2249 10.1148H12.2262Z" fill="#92A8BA"/>
<path d="M17.3522 19.9948C17.8278 20.0593 18.8882 20.213 19.9872 20.8624C20.4473 21.1336 20.5514 21.2782 21.3573 21.7688C22.455 22.4363 22.7648 22.4751 22.7545 22.6248C22.7224 23.0729 19.8046 23.7701 17.0977 22.7333C15.626 22.1691 14.0514 20.9812 14.2429 20.3795C14.4409 19.7559 16.4974 19.8786 17.3522 19.9948Z" fill="#A0B0C0"/>
<path d="M28.5398 3.51069C28.8149 3.46291 29.4306 3.36091 30.1542 3.52747C30.4563 3.59719 30.5398 3.65917 31.0732 3.78958C31.7995 3.96647 31.9781 3.93419 31.9987 4.01811C32.0591 4.27247 30.5617 5.1737 28.8779 5.07557C27.9627 5.02263 26.8804 4.64045 26.8817 4.27247C26.883 3.89158 28.0462 3.5972 28.5398 3.51069Z" fill="#A0B0C0"/>
<path d="M26.0334 2.337C25.964 2.1175 25.8059 1.62944 25.4126 1.16463C25.248 0.969664 25.1722 0.932221 24.8766 0.591356C24.4743 0.127831 24.4319 -0.0154874 24.3624 0.00129759C24.1555 0.0529438 24.0668 1.48742 24.7725 2.67915C25.1568 3.32731 25.8406 3.97418 26.1067 3.83474C26.3817 3.69013 26.1568 2.72951 26.0334 2.33571V2.337Z" fill="#A0B0C0"/>
</g>
<defs>
<clipPath id="clip0_136_870">
<rect width="32" height="24" fill="white"/>
</clipPath>
</defs>
</svg>
